<?xml version="1.0" encoding="UTF-8"?>
<svg width="132px" height="150px" viewBox="0 0 86 77" version="1.1" xmlns="http://www.w3.org/2000/svg" xmlns:xlink="http://www.w3.org/1999/xlink">
    <!-- Generator: Sketch 45.2 (43514) - http://www.bohemiancoding.com/sketch -->
    <title>Page 1</title>
    <desc>Created with Sketch.</desc>
    <defs></defs>
    <g id="Page-1" stroke="none" stroke-width="1" fill="none" fill-rule="evenodd">
        <g id="Home" transform="translate(-265.000000, -2948.000000)">
            <g id="Group-8" transform="translate(0.000000, 81.000000)">
                <g id="Page-1" transform="translate(264.713782, 2867.839732)">
                    <path d="M64.6170521,63.1435401 L81.5386388,55.2273646" id="Fill-1" fill="#FFFFFF"></path>
                    <g id="Group-34" transform="translate(0.000000, 0.325503)">
                        <path d="M83.3346447,74.7946978 L2.88495141,74.7946978 C1.65647932,74.7946978 0.73983898,73.6358439 0.99800667,72.4073718 L8.88517462,34.8700799 C9.07662482,33.9606914 9.86273093,33.3123714 10.770669,33.3123714 L75.4474767,33.3123714 C76.3568652,33.3123714 77.1429713,33.9606914 77.3329711,34.8700799 L85.2201391,72.4073718 C85.4783067,73.6358439 84.5631168,74.7946978 83.3346447,74.7946978" id="Fill-2" fill="#FFFFFF"></path>
                        <path d="M9.10679273,33.8171038 L83.8564915,73.6068363" id="Fill-4" fill="#FFFFFF"></path>
                        <path d="M6.67726073,49.1174554 L24.2544193,42.3557825" id="Fill-6" fill="#FFFFFF"></path>
                        <path d="M3.72138572,60.889757 L27.8513624,74.3971485" id="Fill-8" fill="#FFFFFF"></path>
                        <path d="M16.1105341,67.0859266 L76.1258196,33.8113023" id="Fill-10" fill="#FFFFFF"></path>
                        <path d="M64.7380138,62.8180376 L81.6596005,54.901862" id="Stroke-12" stroke="#312852" stroke-width="1.5" stroke-linecap="round" stroke-linejoin="round"></path>
                        <path d="M83.4556064,74.7946978 L3.00591313,74.7946978 C1.77599065,74.7946978 0.860800695,73.6358439 1.11896838,72.4073718 L9.00613634,34.8700799 C9.19758654,33.9606914 9.98369265,33.3123714 10.8916307,33.3123714 L75.5684385,33.3123714 C76.4778269,33.3123714 77.263933,33.9606914 77.4539328,34.8700799 L85.3411008,72.4073718 C85.5992685,73.6358439 84.6840785,74.7946978 83.4556064,74.7946978 Z" id="Stroke-14" stroke="#312852" stroke-width="1.483" stroke-linecap="round" stroke-linejoin="round"></path>
                        <path d="M9.22760941,33.8171038 L83.9773082,73.6068363" id="Stroke-16" stroke="#312852" stroke-width="1.483" stroke-linecap="round" stroke-linejoin="round"></path>
                        <path d="M6.7980774,49.1174554 L24.375236,42.3557825" id="Stroke-18" stroke="#312852" stroke-width="1.483" stroke-linecap="round" stroke-linejoin="round"></path>
                        <path d="M3.8422024,60.889757 L27.9721791,74.3971485" id="Stroke-20" stroke="#312852" stroke-width="1.483" stroke-linecap="round" stroke-linejoin="round"></path>
                        <path d="M16.2314958,67.0859266 L76.2467813,33.8113023" id="Stroke-22" stroke="#312852" stroke-width="1.483" stroke-linecap="round" stroke-linejoin="round"></path>
                        <path d="M48.9005864,38.7808852 L37.560063,33.5638674" id="Stroke-24" stroke="#312852" stroke-width="1.5" stroke-linecap="round" stroke-linejoin="round"></path>
                        <path d="M43.5807365,20.0502392 C40.927991,20.0502392 38.7785274,17.9007756 38.7785274,15.2480301 C38.7785274,12.5952846 40.927991,10.445821 43.5807365,10.445821 C46.2334821,10.445821 48.3829456,12.5952846 48.3829456,15.2480301 C48.3829456,17.9007756 46.2334821,20.0502392 43.5807365,20.0502392 M50.9124088,37.7390771 C51.237294,37.3010622 51.5607288,36.8586963 51.8841636,36.4061776 C51.9436292,36.3235059 52.0016444,36.2393839 52.0596596,36.1567122 C56.3411822,30.1289318 60.3007204,23.0307707 60.3007204,18.2140578 C60.3007204,18.1632945 60.2905677,18.10818 60.2905677,18.0574167 C60.2905677,8.004831 52.5701935,0.399036816 43.2297445,0.211937761 C33.8907459,0.399036816 26.1703717,8.004831 26.1703717,18.0574167 C26.1703717,18.10818 26.160219,18.1632945 26.160219,18.2140578 C26.160219,25.4253485 35.0292944,37.7637335 40.5813501,43.9452543 C41.3021891,44.748765 42.2840966,44.985177 43.2297445,44.9953296 C44.1768428,44.985177 45.1572999,44.748765 45.8795893,43.9452543 C47.3357711,42.3237291 49.021113,40.2728914 50.7137067,38.0073974 C50.7804242,37.9189242 50.8456913,37.8275503 50.9124088,37.7390771" id="Fill-26" fill="#F5CB08"></path>
                        <path d="M43.5807365,20.0502392 C40.927991,20.0502392 38.7785274,17.9007756 38.7785274,15.2480301 C38.7785274,12.5952846 40.927991,10.445821 43.5807365,10.445821 C46.2334821,10.445821 48.3829456,12.5952846 48.3829456,15.2480301 C48.3829456,17.9007756 46.2334821,20.0502392 43.5807365,20.0502392 Z M50.9124088,37.7390771 C51.237294,37.3010622 51.5607288,36.8586963 51.8841636,36.4061776 C51.9436292,36.3235059 52.0016444,36.2393839 52.0596596,36.1567122 C56.3411822,30.1289318 60.3007204,23.0307707 60.3007204,18.2140578 C60.3007204,18.1632945 60.2905677,18.10818 60.2905677,18.0574167 C60.2905677,8.004831 52.5701935,0.399036816 43.2297445,0.211937761 C33.8907459,0.399036816 26.1703717,8.004831 26.1703717,18.0574167 C26.1703717,18.10818 26.160219,18.1632945 26.160219,18.2140578 C26.160219,25.4253485 35.0292944,37.7637335 40.5813501,43.9452543 C41.3021891,44.748765 42.2840966,44.985177 43.2297445,44.9953296 C44.1768428,44.985177 45.1572999,44.748765 45.8795893,43.9452543 C47.3357711,42.3237291 49.021113,40.2728914 50.7137067,38.0073974 C50.7804242,37.9189242 50.8456913,37.8275503 50.9124088,37.7390771 Z" id="Stroke-28" stroke="#312852" stroke-width="1.5" stroke-linecap="round" stroke-linejoin="round"></path>
                        <path d="M43.5807365,20.0502392 C40.927991,20.0502392 38.7785274,17.9007756 38.7785274,15.2480301 C38.7785274,12.5952846 40.927991,10.445821 43.5807365,10.445821 C46.2334821,10.445821 48.3829456,12.5952846 48.3829456,15.2480301 C48.3829456,17.9007756 46.2334821,20.0502392 43.5807365,20.0502392 Z M50.9124088,37.7390771 C51.237294,37.3010622 51.5607288,36.8586963 51.8841636,36.4061776 C51.9436292,36.3235059 52.0016444,36.2393839 52.0596596,36.1567122 C56.3411822,30.1289318 60.3007204,23.0307707 60.3007204,18.2140578 C60.3007204,18.1632945 60.2905677,18.10818 60.2905677,18.0574167 C60.2905677,8.004831 52.5701935,0.399036816 43.2297445,0.211937761 C33.8907459,0.399036816 26.1703717,8.004831 26.1703717,18.0574167 C26.1703717,18.10818 26.160219,18.1632945 26.160219,18.2140578 C26.160219,25.4253485 35.0292944,37.7637335 40.5813501,43.9452543 C41.3021891,44.748765 42.2840966,44.985177 43.2297445,44.9953296 C44.1768428,44.985177 45.1572999,44.748765 45.8795893,43.9452543 C47.3357711,42.3237291 49.021113,40.2728914 50.7137067,38.0073974 C50.7804242,37.9189242 50.8456913,37.8275503 50.9124088,37.7390771 Z" id="Stroke-30" stroke="#312852" stroke-width="1.5" stroke-linecap="round" stroke-linejoin="round"></path>
                        <path d="M43.2184315,36.9171466 C43.2619429,36.754704 43.3054544,36.6067652 43.3431642,36.5023378 C43.3431642,36.5023378 43.2575918,36.5574523 43.1169049,36.6459255 C43.128508,36.6792842 43.1343095,36.7169941 43.1459125,36.7503528 C43.1691186,36.8098184 43.1952254,36.8605817 43.2184315,36.9171466" id="Fill-32" fill="#E8E1FF"></path>
                    </g>
                </g>
            </g>
        </g>
    </g>
</svg>